<?xml version="1.0" encoding="UTF-8" standalone="no"?>
<!-- Created with Inkscape (http://www.inkscape.org/) -->
<svg
   xmlns:dc="http://purl.org/dc/elements/1.1/"
   xmlns:cc="http://web.resource.org/cc/"
   xmlns:rdf="http://www.w3.org/1999/02/22-rdf-syntax-ns#"
   xmlns:svg="http://www.w3.org/2000/svg"
   xmlns="http://www.w3.org/2000/svg"
   xmlns:sodipodi="http://sodipodi.sourceforge.net/DTD/sodipodi-0.dtd"
   xmlns:inkscape="http://www.inkscape.org/namespaces/inkscape"
   id="svg2"
   sodipodi:version="0.32"
   inkscape:version="0.45.1"
   width="35"
   height="32"
   version="1.0"
   sodipodi:docbase="C:\Users\Trenton Cronholm\Desktop"
   sodipodi:docname="Baybayin_Ta.svg"
   inkscape:output_extension="org.inkscape.output.svg.inkscape">
  <metadata
     id="metadata7">
    <rdf:RDF>
      <cc:Work
         rdf:about="">
        <dc:format>image/svg+xml</dc:format>
        <dc:type
           rdf:resource="http://purl.org/dc/dcmitype/StillImage" />
      </cc:Work>
    </rdf:RDF>
  </metadata>
  <defs
     id="defs5" />
  <sodipodi:namedview
     inkscape:window-height="718"
     inkscape:window-width="1020"
     inkscape:pageshadow="2"
     inkscape:pageopacity="0.0"
     guidetolerance="10.0"
     gridtolerance="10.0"
     objecttolerance="10.0"
     borderopacity="1.0"
     bordercolor="#666666"
     pagecolor="#ffffff"
     id="base"
     inkscape:zoom="16.25"
     inkscape:cx="17.5"
     inkscape:cy="16"
     inkscape:window-x="0"
     inkscape:window-y="14"
     inkscape:current-layer="svg2" />
  <path
     style="fill:#000000;fill-rule:evenodd;stroke:none;stroke-width:1px;stroke-linecap:butt;stroke-linejoin:miter;stroke-opacity:1;fill-opacity:1"
     d="M 7.5076923,16.615385 C 6.3949073,16.697757 1.9826012,15.493831 2.0307692,12.061538 C 2.0789372,8.5677063 5.0462935,7.1425742 7.5076923,7.0769231 C 9.9690912,7.011272 11.604359,8.381474 12.061538,10.523077 C 10.56882,9.8272817 9.1671872,9.6788976 7.3846154,9.6615384 C 5.663582,9.6441792 4.5439799,10.352414 4.4923077,11.938462 C 4.4426383,13.463036 6.3982662,14.6684 7.3846154,14.461538 C 10.463272,13.885445 17.511222,9.0656652 20.061538,7.876923 C 23.493974,6.4344203 27.256397,6.1986611 29.476923,7.3846154 C 31.277327,8.3628954 32.483954,9.2349154 32.369231,11.507692 C 32.254394,13.782738 30.684645,15.53904 29.107692,15.938462 C 30.086547,14.300317 30.479578,14.529405 30.215385,11.938462 C 29.945704,9.2936935 26.894364,8.9344851 25.600001,8.923077 C 24.367176,8.9116688 23.216745,8.9843472 20.123077,10.646154 C 17.029409,12.30796 8.2935564,16.937473 8.4923077,19.261539 C 8.5116676,20.231307 8.3723985,22.748023 11.630769,22.4 C 14.88914,22.051976 16.299561,20.735246 17.784615,19.138462 C 17.817827,21.663543 16.084151,24.893795 11.753846,24.984615 C 7.4850796,25.075435 5.5555502,22.489085 5.5384615,20.246153 C 5.5213829,18.004535 6.712785,17.148398 7.5076923,16.615385 z "
     id="path2161"
     sodipodi:nodetypes="czzczzccczczzzczczzc" />
</svg>
