<?xml version="1.0" encoding="UTF-8" standalone="no"?>
<!-- Created with Inkscape (http://www.inkscape.org/) -->
<svg
   xmlns:dc="http://purl.org/dc/elements/1.1/"
   xmlns:cc="http://web.resource.org/cc/"
   xmlns:rdf="http://www.w3.org/1999/02/22-rdf-syntax-ns#"
   xmlns:svg="http://www.w3.org/2000/svg"
   xmlns="http://www.w3.org/2000/svg"
   xmlns:sodipodi="http://sodipodi.sourceforge.net/DTD/sodipodi-0.dtd"
   xmlns:inkscape="http://www.inkscape.org/namespaces/inkscape"
   version="1.0"
   width="36"
   height="32"
   id="svg1339"
   sodipodi:version="0.32"
   inkscape:version="0.45.1"
   sodipodi:docname="Baybayin_A.svg"
   inkscape:output_extension="org.inkscape.output.svg.inkscape"
   sodipodi:docbase="C:\Users\Trenton Cronholm\Desktop">
  <metadata
     id="metadata6">
    <rdf:RDF>
      <cc:Work
         rdf:about="">
        <dc:format>image/svg+xml</dc:format>
        <dc:type
           rdf:resource="http://purl.org/dc/dcmitype/StillImage" />
      </cc:Work>
    </rdf:RDF>
  </metadata>
  <sodipodi:namedview
     inkscape:window-height="718"
     inkscape:window-width="1024"
     inkscape:pageshadow="2"
     inkscape:pageopacity="0.0"
     guidetolerance="10.0"
     gridtolerance="10.0"
     objecttolerance="10.0"
     borderopacity="1.0"
     bordercolor="#666666"
     pagecolor="#ffffff"
     id="base"
     inkscape:zoom="16.25"
     inkscape:cx="18"
     inkscape:cy="16"
     inkscape:window-x="-8"
     inkscape:window-y="-8"
     inkscape:current-layer="svg1339" />
  <defs
     id="defs1342" />
  <path
     d="M 8.3091416,28.911401 C 4.7828655,28.868208 3.8934515,27.614535 3.0369393,26.255375 C 2.3990974,25.243213 1.62172,23.344307 1.6016286,21.60006 C 1.9736617,20.371056 4.4083765,21.248599 4.5139735,21.851522 C 4.5139735,23.956474 5.8355425,26.307692 8.3248755,26.307692 C 11.732676,26.246154 13.128694,23.275517 17.245941,19.945593 C 24.423233,12.894577 25.98202,13.36168 28.640287,13.334054 C 30.294546,13.316863 31.473595,14.530243 32.382753,15.541377 C 34.313263,17.338733 32.751499,23.036817 28.912382,23.859501 C 31.691894,16.896631 30.226801,15.876923 27.704885,15.876923 C 26.592396,15.876923 22.444585,19.224501 18.914015,22.478833 C 12.519167,28.373335 11.662648,28.949194 8.3091416,28.911401 z "
     style="fill:#000000"
     id="path1350"
     sodipodi:nodetypes="csccccsccssc" />
  <path
     style="fill:#000000;fill-rule:evenodd;stroke:none;stroke-width:1px;stroke-linecap:butt;stroke-linejoin:miter;stroke-opacity:1;fill-opacity:1"
     d="M 10.953846,3.5076923 C 10.953846,3.5076923 12.829466,3.1384897 14.092307,3.5692307 C 15.41096,4.0190081 16.982197,4.9665209 17.046154,8.3076923 C 17.052444,9.1692309 16.994755,10.030769 16.307692,10.892308 L 23.446154,10.953846 C 22.986544,12.426301 20.705507,12.988317 19.753846,12.984616 L 14.892308,12.861539 C 14.055413,14.006174 12.399039,15.137821 10.892308,15.815385 C 9.6071949,16.110832 8.3361066,16.462375 6.8923077,16.123077 C 7.6210408,16.289084 7.9263659,16.98435 8,17.969231 C 5.8884203,18.175876 4.4728835,20.169991 4.4923077,22.215385 L 1.6,22.092307 C 1.5746204,21.128205 1.5510166,20.164102 1.8461539,19.2 C 2.5202656,17.84278 3.4284603,17.049537 4.9230769,16.676923 L 1.1076923,12.738462 C 0.2749411,11.782634 1.8134385,10.428824 2.7692307,11.261539 C 4.101765,12.349118 5.0731196,13.001902 7.0153846,13.784616 C 9.2479609,14.315544 9.9718327,14.021195 11.323077,12.492308 C 10.060248,11.617321 8.1542141,9.7071405 6.5230769,8.3076923 C 5.3231355,7.1758108 6.5951529,5.3932626 8.3692307,6.7076923 C 8.1956461,6.7655538 12.360477,10.522327 13.353846,10.646154 C 13.847834,10.360655 14.117743,9.8510762 14.461539,9.4153846 C 15.834645,6.757842 13.098181,5.1201374 10.953846,3.5076923 z "
     id="path2219"
     sodipodi:nodetypes="czccccccccccccccccccccc" />
</svg>
