<?xml version="1.0" encoding="UTF-8" standalone="no"?>
<!-- Created with Inkscape (http://www.inkscape.org/) -->
<svg
   xmlns:dc="http://purl.org/dc/elements/1.1/"
   xmlns:cc="http://web.resource.org/cc/"
   xmlns:rdf="http://www.w3.org/1999/02/22-rdf-syntax-ns#"
   xmlns:svg="http://www.w3.org/2000/svg"
   xmlns="http://www.w3.org/2000/svg"
   xmlns:sodipodi="http://sodipodi.sourceforge.net/DTD/sodipodi-0.dtd"
   xmlns:inkscape="http://www.inkscape.org/namespaces/inkscape"
   id="svg2"
   sodipodi:version="0.32"
   inkscape:version="0.45.1"
   width="35"
   height="32"
   version="1.0"
   sodipodi:docbase="C:\Users\Trenton Cronholm\Desktop"
   sodipodi:docname="Baybayin_Da.svg"
   inkscape:output_extension="org.inkscape.output.svg.inkscape">
  <metadata
     id="metadata7">
    <rdf:RDF>
      <cc:Work
         rdf:about="">
        <dc:format>image/svg+xml</dc:format>
        <dc:type
           rdf:resource="http://purl.org/dc/dcmitype/StillImage" />
      </cc:Work>
    </rdf:RDF>
  </metadata>
  <defs
     id="defs5" />
  <sodipodi:namedview
     inkscape:window-height="718"
     inkscape:window-width="1024"
     inkscape:pageshadow="2"
     inkscape:pageopacity="0.0"
     guidetolerance="10.0"
     gridtolerance="10.0"
     objecttolerance="10.0"
     borderopacity="1.0"
     bordercolor="#666666"
     pagecolor="#ffffff"
     id="base"
     inkscape:zoom="22.462603"
     inkscape:cx="17.579762"
     inkscape:cy="17.492734"
     inkscape:window-x="-8"
     inkscape:window-y="-8"
     inkscape:current-layer="svg2" />
  <path
     style="fill:#000000;fill-rule:evenodd;stroke:none;stroke-width:1px;stroke-linecap:butt;stroke-linejoin:miter;stroke-opacity:1;fill-opacity:1"
     d="M 4.7189544,6.0012322 C 3.5965853,7.538266 2.5234549,9.1081257 2.4485141,11.343445 C 2.1836809,13.298588 3.3433262,15.215597 4.7189544,16.552102 C 7.1797013,18.243203 9.4923824,16.528792 11.841905,15.661733 C 17.188342,13.377139 22.374248,10.878505 28.046616,9.028486 C 30.103899,8.2920491 31.438133,9.1989055 30.895796,14.370698 C 32.053349,12.40443 32.720457,10.572089 32.231349,9.4291519 C 31.055106,6.2715441 29.093946,6.35172 26.978173,7.0696747 C 20.882605,9.0148711 15.143312,11.850755 9.2598351,14.32618 C 7.5123225,15.31156 6.1409419,15.356611 5.3422126,13.970033 C 4.353853,12.264162 4.5771408,10.931106 5.1196204,9.6962625 L 6.499692,7.20323 C 7.1935887,6.2861368 5.4342301,5.0811208 4.7189544,6.0012322 z "
     id="path2160"
     sodipodi:nodetypes="ccccccccccccc" />
  <path
     sodipodi:nodetypes="ccccccccccccc"
     id="path3135"
     d="M 4.3628069,14.237143 C 3.2404378,15.774177 2.1673074,17.344037 2.0923666,19.579356 C 1.8275334,21.534499 2.9871787,23.451508 4.3628069,24.788013 C 6.8235538,26.479114 9.1362349,24.764703 11.485757,23.897644 C 16.832194,21.61305 22.0181,19.114416 27.690468,17.264397 C 29.747751,16.52796 31.081985,17.434817 30.539648,22.606609 C 31.697201,20.640341 32.364309,18.808 31.875201,17.665063 C 30.698958,14.507455 28.737798,14.587631 26.622025,15.305586 C 20.526457,17.250782 14.787164,20.086666 8.9036876,22.562091 C 7.156175,23.547471 5.7847944,23.592522 4.9860651,22.205944 C 3.9977055,20.500073 4.2209933,19.167017 4.7634729,17.932174 L 6.1435445,15.439141 L 4.3628069,14.237143 z "
     style="fill:#000000;fill-opacity:1;fill-rule:evenodd;stroke:none;stroke-width:1px;stroke-linecap:butt;stroke-linejoin:miter;stroke-opacity:1" />
</svg>
