<?xml version="1.0" encoding="UTF-8" standalone="no"?>
<!-- Created with Inkscape (http://www.inkscape.org/) -->
<svg
   xmlns:dc="http://purl.org/dc/elements/1.1/"
   xmlns:cc="http://web.resource.org/cc/"
   xmlns:rdf="http://www.w3.org/1999/02/22-rdf-syntax-ns#"
   xmlns:svg="http://www.w3.org/2000/svg"
   xmlns="http://www.w3.org/2000/svg"
   xmlns:sodipodi="http://sodipodi.sourceforge.net/DTD/sodipodi-0.dtd"
   xmlns:inkscape="http://www.inkscape.org/namespaces/inkscape"
   id="svg2"
   sodipodi:version="0.32"
   inkscape:version="0.45.1"
   width="35"
   height="32"
   version="1.0"
   sodipodi:docbase="C:\Users\Trenton Cronholm\Desktop"
   sodipodi:docname="Baybayin_Na.svg"
   inkscape:output_extension="org.inkscape.output.svg.inkscape">
  <metadata
     id="metadata7">
    <rdf:RDF>
      <cc:Work
         rdf:about="">
        <dc:format>image/svg+xml</dc:format>
        <dc:type
           rdf:resource="http://purl.org/dc/dcmitype/StillImage" />
      </cc:Work>
    </rdf:RDF>
  </metadata>
  <defs
     id="defs5" />
  <sodipodi:namedview
     inkscape:window-height="718"
     inkscape:window-width="1024"
     inkscape:pageshadow="2"
     inkscape:pageopacity="0.0"
     guidetolerance="10.0"
     gridtolerance="10.0"
     objecttolerance="10.0"
     borderopacity="1.0"
     bordercolor="#666666"
     pagecolor="#ffffff"
     id="base"
     inkscape:zoom="28.541371"
     inkscape:cx="17.030009"
     inkscape:cy="16.821135"
     inkscape:window-x="-8"
     inkscape:window-y="-8"
     inkscape:current-layer="svg2" />
  <path
     style="fill:#000000;fill-opacity:1;fill-rule:evenodd;stroke:none;stroke-width:1px;stroke-linecap:butt;stroke-linejoin:miter;stroke-opacity:1"
     d="M 5.3736042,24.832349 C 5.3736042,24.832349 5.5120658,18.093888 6.9736042,14.678503 C 8.4448357,11.240467 13.617176,9.2143829 14.912065,9.2015801 C 16.171918,9.1887773 16.461391,10.068785 17.218177,11.742623 C 17.961834,13.387424 18.867606,17.510199 16.913172,18.310168 C 18.596534,18.677391 16.173604,23.955426 15.958219,24.893888 C 16.665911,24.724657 17.071061,24.965649 19.712066,20.586195 C 20.116063,19.976181 20.829306,18.825125 19.689293,18.265116 C 20.594201,17.692249 20.252815,16.535395 21.581136,16.252003 C 20.131822,15.960379 20.482962,12.449484 19.712065,10.924657 C 18.95329,9.4238084 19.3608,10.386985 18.866701,9.1997885 C 21.522231,9.8235249 25.464836,10.596282 26.850527,16.83235 C 27.912065,20.293888 27.89668,25.016965 27.89668,25.016965 C 27.89668,25.016965 30.912066,21.478504 27.835143,12.893888 C 26.223205,9.5770135 22.312066,6.6785034 16.696681,6.8015802 C 11.142834,6.924657 3.574655,12.501074 3.6505272,18.00158 C 3.7263994,25.471317 5.3736042,24.832349 5.3736042,24.832349 z "
     id="path2161"
     sodipodi:nodetypes="czzzccccczcccczcc" />
</svg>
