<?xml version="1.0" encoding="UTF-8" standalone="no"?>
<!-- Created with Inkscape (http://www.inkscape.org/) -->
<svg
   xmlns:dc="http://purl.org/dc/elements/1.1/"
   xmlns:cc="http://web.resource.org/cc/"
   xmlns:rdf="http://www.w3.org/1999/02/22-rdf-syntax-ns#"
   xmlns:svg="http://www.w3.org/2000/svg"
   xmlns="http://www.w3.org/2000/svg"
   xmlns:sodipodi="http://sodipodi.sourceforge.net/DTD/sodipodi-0.dtd"
   xmlns:inkscape="http://www.inkscape.org/namespaces/inkscape"
   version="1.0"
   width="36"
   height="32"
   id="svg1339"
   sodipodi:version="0.32"
   inkscape:version="0.45.1"
   sodipodi:docname="Baybayin_B.svg"
   inkscape:output_extension="org.inkscape.output.svg.inkscape"
   sodipodi:docbase="C:\Users\Trenton Cronholm\Desktop">
  <metadata
     id="metadata7">
    <rdf:RDF>
      <cc:Work
         rdf:about="">
        <dc:format>image/svg+xml</dc:format>
        <dc:type
           rdf:resource="http://purl.org/dc/dcmitype/StillImage" />
      </cc:Work>
    </rdf:RDF>
  </metadata>
  <sodipodi:namedview
     inkscape:window-height="718"
     inkscape:window-width="1024"
     inkscape:pageshadow="2"
     inkscape:pageopacity="0.0"
     guidetolerance="10.0"
     gridtolerance="10.0"
     objecttolerance="10.0"
     borderopacity="1.0"
     bordercolor="#666666"
     pagecolor="#ffffff"
     id="base"
     inkscape:zoom="20.68963"
     inkscape:cx="16.818935"
     inkscape:cy="14.515628"
     inkscape:window-x="-8"
     inkscape:window-y="-8"
     inkscape:current-layer="svg1339" />
  <defs
     id="defs1342" />
  <path
     d="M 14.430946,21.088905 C 11.969188,21.885268 11.191064,21.795983 9.5356736,21.429149 C 8.0097504,21.139197 6.8582248,20.573553 5.9649339,19.527431 C 4.8563286,17.846249 4.448195,16.307269 4.5018907,15.119335 C 4.4900642,12.542509 6.6028593,10.093225 8.3047296,8.6935587 C 11.094,6.6253344 13.86001,5.8280008 16.486363,6.0135145 C 19.512687,5.9769168 24.486314,7.353769 26.854057,11.556166 C 29.014838,15.390313 29.159549,18.746987 27.233502,21.949695 C 25.744116,24.426305 21.944466,25.743714 19.110118,25.275382 C 17.669512,24.925216 13.810827,23.532004 14.430946,21.088905 z M 26.368094,16.533565 C 26.197422,14.820061 25.527997,12.918305 24.206279,11.642829 C 22.499077,9.8504934 19.420921,8.8294862 17.01454,8.7567487 C 14.860558,8.6987777 12.88865,8.6995577 10.892728,9.6394247 C 9.3449819,10.383828 8.390988,11.49247 7.8477378,13.059248 C 7.345126,14.468123 7.0298946,16.143467 7.6911791,17.556266 C 8.9546107,19.731139 12.830157,19.613107 15.825498,18.981897 C 15.901004,20.075384 15.945779,20.271349 16.711156,21.30209 C 17.815596,22.261256 19.173318,23.062588 20.648479,23.225379 C 22.178394,23.168411 23.89262,22.615278 24.918092,21.565328 C 25.601571,20.700338 26.52622,17.941898 26.368094,16.533565 z "
     style="fill:#000000"
     id="path2432"
     sodipodi:nodetypes="cccccccsccccccccccccc" />
  <path
     d="M 17.114265,26.539675 C 17.732252,26.56223 18.442561,26.522789 18.897962,26.552555 C 18.913542,27.044593 18.880277,27.801651 18.911735,28.358157 C 19.519912,28.373534 20.359818,28.359608 20.804513,28.394227 C 20.805177,28.688534 20.819883,29.581725 20.801562,30.016469 C 20.474611,30.043577 19.490083,30.059668 18.916307,30.06684 C 18.90436,30.587623 18.90338,31.496758 18.894914,31.978759 C 18.479232,31.99263 17.588575,31.977428 17.125902,31.969951 C 17.106181,31.541375 17.109945,30.559068 17.091181,30.098109 C 16.631393,30.098646 15.915851,30.080566 15.326619,30.098597 C 15.285871,29.713033 15.29675,28.869385 15.299997,28.416071 C 15.786978,28.417673 16.557871,28.398448 17.131319,28.379127 C 17.144104,27.857013 17.142189,27.172645 17.114265,26.539675 z "
     style="fill:#000000"
     id="path2767" />
</svg>
