<?xml version="1.0" encoding="UTF-8" standalone="no"?>
<!-- Created with Inkscape (http://www.inkscape.org/) -->
<svg
   xmlns:svg="http://www.w3.org/2000/svg"
   xmlns="http://www.w3.org/2000/svg"
   xmlns:xlink="http://www.w3.org/1999/xlink"
   version="1.0"
   width="36"
   height="32"
   id="svg1306">
  <defs
     id="defs1309" />
  <path
     d="M 14.634859,23.92742 C 10.810235,20.91897 11.404453,19.71607 15.516669,22.142336 C 18.411639,23.85041 19.304102,23.992507 20.564926,22.946116 C 22.933551,20.980332 21.860993,17.680351 18.270416,15.886511 C 15.080411,14.292796 15.065092,14.251067 17.020416,12.481524 C 19.740833,10.01958 19.573156,9.5963582 15.011473,7.4108812 C 12.817783,6.3598965 11.017783,4.9375 11.011473,4.25 C 11.005163,3.5625 11.276602,3 11.614672,3 C 12.125767,3 21.554335,7.7666012 22.92061,8.7157036 C 23.151945,8.876404 22.286004,10.131112 20.996296,11.503943 C 19.706588,12.876774 19.14767,14 19.754257,14 C 23.289814,14 25.557816,22.042184 22.8,24.8 C 20.99034,26.60966 17.581678,26.245388 14.634859,23.92742 z "
     style="fill:#000000"
     id="path1315" />
</svg>
