<?xml version="1.0" encoding="UTF-8" standalone="no"?>
<!-- Created with Inkscape (http://www.inkscape.org/) -->
<svg
   xmlns:dc="http://purl.org/dc/elements/1.1/"
   xmlns:cc="http://web.resource.org/cc/"
   xmlns:rdf="http://www.w3.org/1999/02/22-rdf-syntax-ns#"
   xmlns:svg="http://www.w3.org/2000/svg"
   xmlns="http://www.w3.org/2000/svg"
   xmlns:sodipodi="http://sodipodi.sourceforge.net/DTD/sodipodi-0.dtd"
   xmlns:inkscape="http://www.inkscape.org/namespaces/inkscape"
   version="1.0"
   width="36"
   height="32"
   id="svg1551"
   sodipodi:version="0.32"
   inkscape:version="0.45.1"
   sodipodi:docname="Baybayin_E-I.svg"
   inkscape:output_extension="org.inkscape.output.svg.inkscape"
   sodipodi:docbase="C:\Users\Trenton Cronholm\Desktop">
  <metadata
     id="metadata6">
    <rdf:RDF>
      <cc:Work
         rdf:about="">
        <dc:format>image/svg+xml</dc:format>
        <dc:type
           rdf:resource="http://purl.org/dc/dcmitype/StillImage" />
      </cc:Work>
    </rdf:RDF>
  </metadata>
  <sodipodi:namedview
     inkscape:window-height="718"
     inkscape:window-width="1024"
     inkscape:pageshadow="2"
     inkscape:pageopacity="0.0"
     guidetolerance="10.0"
     gridtolerance="10.0"
     objecttolerance="10.0"
     borderopacity="1.0"
     bordercolor="#666666"
     pagecolor="#ffffff"
     id="base"
     inkscape:zoom="16.25"
     inkscape:cx="17.408209"
     inkscape:cy="16"
     inkscape:window-x="-8"
     inkscape:window-y="-8"
     inkscape:current-layer="svg1551" />
  <defs
     id="defs1554" />
  <path
     d="M 26.853846,21.512402 C 25.138462,21.539194 23.0725,20.39955 22.55,19.902935 C 22.0275,19.406321 19.70089,19.34796 18.741529,19.430769 C 16.602709,19.615384 16.034872,19.319554 14.325741,17.891009 C 8.2498422,17.867308 7.1384615,16.183115 7.1384615,15.294059 C 7.1384615,14.514634 8.2653846,13.753846 9.0615385,13.076923 C 9.6115385,13.630769 9.6095691,14.612619 10,15 C 10.492308,15.488462 11.548442,16 13.440983,16 C 15.333524,16 16.699331,14.390482 16.902256,15.004377 C 17.796021,17.708223 19.782535,18.210873 21.468926,16.857027 C 23.093778,17.841642 23.491583,19.101845 26.467345,19.126612 C 28.044368,19.139738 28.252331,17.892823 29.515693,16.165073 C 30.717517,17.083477 31.483748,17.697502 31.492308,18.883369 C 31.505183,20.666963 28.375861,21.605692 26.853846,21.512402 z M 25,12.485449 C 22.525,11.796114 16.780819,10.901107 12.235153,10.496543 C 7.6894879,10.091979 3.6935786,9.3132168 3.3553552,8.7659597 C 2.6905462,7.6902763 12.9236,8.3763433 23.5,10.116542 C 31.515349,11.435355 33.136378,11.970319 32.455504,13.071996 C 31.76636,14.187054 30.850878,14.115031 25,12.485449 z "
     style="fill:#000000"
     id="path1560"
     sodipodi:nodetypes="csscscssscscsccssssc" />
</svg>
