<?xml version="1.0" encoding="UTF-8" standalone="no"?>
<!-- Created with Inkscape (http://www.inkscape.org/) -->
<svg
   xmlns:dc="http://purl.org/dc/elements/1.1/"
   xmlns:cc="http://web.resource.org/cc/"
   xmlns:rdf="http://www.w3.org/1999/02/22-rdf-syntax-ns#"
   xmlns:svg="http://www.w3.org/2000/svg"
   xmlns="http://www.w3.org/2000/svg"
   xmlns:sodipodi="http://sodipodi.sourceforge.net/DTD/sodipodi-0.dtd"
   xmlns:inkscape="http://www.inkscape.org/namespaces/inkscape"
   id="svg2"
   sodipodi:version="0.32"
   inkscape:version="0.45.1"
   width="35"
   height="32"
   version="1.0"
   sodipodi:docbase="C:\Users\Trenton Cronholm\Desktop"
   sodipodi:docname="Baybayin_Ha.svg"
   inkscape:output_extension="org.inkscape.output.svg.inkscape">
  <metadata
     id="metadata7">
    <rdf:RDF>
      <cc:Work
         rdf:about="">
        <dc:format>image/svg+xml</dc:format>
        <dc:type
           rdf:resource="http://purl.org/dc/dcmitype/StillImage" />
      </cc:Work>
    </rdf:RDF>
  </metadata>
  <defs
     id="defs5" />
  <sodipodi:namedview
     inkscape:window-height="718"
     inkscape:window-width="1024"
     inkscape:pageshadow="2"
     inkscape:pageopacity="0.0"
     guidetolerance="10.0"
     gridtolerance="10.0"
     objecttolerance="10.0"
     borderopacity="1.0"
     bordercolor="#666666"
     pagecolor="#ffffff"
     id="base"
     inkscape:zoom="16.25"
     inkscape:cx="17.5"
     inkscape:cy="16"
     inkscape:window-x="-8"
     inkscape:window-y="-8"
     inkscape:current-layer="svg2" />
  <path
     style="fill:#000000;fill-opacity:1;fill-rule:evenodd;stroke:none;stroke-width:1px;stroke-linecap:butt;stroke-linejoin:miter;stroke-opacity:1"
     d="M 11.507692,12.246153 C 11.507692,12.246153 8.3999999,10.753847 6.9538462,10.769231 C 5.5076925,10.784616 5.1846154,10.676923 3.9384616,11.815385 C 2.6935507,12.952711 2.5312871,13.753504 2.5846154,15.261538 C 2.6357702,16.708109 2.892308,19.092307 5.1076924,19.815384 C 7.3056287,20.532766 10.839263,20.480461 13.16923,18.892308 C 15.45736,17.332672 19.47478,13.733661 21.846154,12.061538 C 24.246154,10.36923 27.153845,11.2 28.36923,11.753846 C 29.562483,12.297606 29.954138,14.041362 29.846154,15.815385 C 29.738462,17.584616 29.153846,18.353845 27.015384,18.892307 C 24.876922,19.430768 21.415383,18.892308 21.415383,18.892308 C 21.415383,18.892308 23.307692,20.615385 25.784615,20.8 C 28.261538,20.984616 28.733878,21.12529 30.461538,19.938462 C 32.230769,18.723077 32.56923,16.892309 32.553846,15.692308 C 32.538452,14.491519 32.846153,13.292307 31.753845,11.815384 C 30.661537,10.338461 30.461538,9.876923 28.430769,9.1692308 C 26.4,8.4615386 25.462485,8.4345501 23.384615,8.9846154 C 21.290731,9.53892 20.235586,10.123286 17.476923,12.492307 C 14.753846,14.830769 14,15.415385 11.876923,16.8 C 9.7538457,18.184615 8.8153847,18.2 7.323077,18.092308 C 5.8919822,17.989033 5.3076923,17.599999 5.1076923,16.246153 C 4.9076923,14.892307 4.856285,13.830793 5.8461539,12.984616 C 6.8000001,12.169231 11.507692,12.246153 11.507692,12.246153 z "
     id="path2163"
     sodipodi:nodetypes="czzzzzzzzzczzzzzzzzzzzc" />
</svg>
