<?xml version="1.0" encoding="UTF-8" standalone="no"?>
<!-- Created with Inkscape (http://www.inkscape.org/) -->
<svg
   xmlns:dc="http://purl.org/dc/elements/1.1/"
   xmlns:cc="http://web.resource.org/cc/"
   xmlns:rdf="http://www.w3.org/1999/02/22-rdf-syntax-ns#"
   xmlns:svg="http://www.w3.org/2000/svg"
   xmlns="http://www.w3.org/2000/svg"
   xmlns:sodipodi="http://sodipodi.sourceforge.net/DTD/sodipodi-0.dtd"
   xmlns:inkscape="http://www.inkscape.org/namespaces/inkscape"
   id="svg2"
   sodipodi:version="0.32"
   inkscape:version="0.45.1"
   width="35"
   height="32"
   version="1.0"
   sodipodi:docbase="C:\Users\Trenton Cronholm\Desktop"
   sodipodi:docname="Baybayin_Ga.svg"
   inkscape:output_extension="org.inkscape.output.svg.inkscape">
  <metadata
     id="metadata7">
    <rdf:RDF>
      <cc:Work
         rdf:about="">
        <dc:format>image/svg+xml</dc:format>
        <dc:type
           rdf:resource="http://purl.org/dc/dcmitype/StillImage" />
      </cc:Work>
    </rdf:RDF>
  </metadata>
  <defs
     id="defs5" />
  <sodipodi:namedview
     inkscape:window-height="718"
     inkscape:window-width="1024"
     inkscape:pageshadow="2"
     inkscape:pageopacity="0.0"
     guidetolerance="10.0"
     gridtolerance="10.0"
     objecttolerance="10.0"
     borderopacity="1.0"
     bordercolor="#666666"
     pagecolor="#ffffff"
     id="base"
     inkscape:zoom="16.25"
     inkscape:cx="17.5"
     inkscape:cy="13.538462"
     inkscape:window-x="-8"
     inkscape:window-y="-8"
     inkscape:current-layer="svg2" />
  <path
     style="fill:#000000;fill-rule:evenodd;stroke:none;stroke-width:1px;stroke-linecap:butt;stroke-linejoin:miter;stroke-opacity:1;fill-opacity:1"
     d="M 9.4153846,23.569231 C 12.298123,23.643088 15.402781,23.951935 17.6,22.830769 C 19.253396,21.688471 18.444174,20.608175 17.6,19.938462 C 15.858909,18.932084 14.317778,17.825726 13.230769,16.492308 C 11.913872,14.265211 13.14366,12.947644 14.030769,11.507692 L 15.938462,9.8461538 C 12.865033,6.5309211 8.9809038,7.107047 5.1076923,7.6307692 C 4.3849497,7.4666666 4.715559,6.5641025 5.2307692,6.2153846 C 10.870881,4.845515 14.644225,6.0301703 17.169231,8.9230769 C 19.267707,7.9154028 21.141868,7.1042574 23.876923,6.8923076 C 25.933354,6.9830901 29.113363,8.9010156 29.415385,11.938462 C 29.493294,14.16909 27.911275,16.636851 26.953846,19.015385 C 26.610617,20.286602 27.140639,21.932069 27.938462,23.692308 C 28.397616,24.500596 29.183718,25.627148 30.092308,26.523077 C 28.499171,25.849566 27.289766,25.080122 26.584615,24.184615 C 25.856728,22.884535 25.364977,21.525422 25.292308,20.061538 C 25.454179,17.720845 26.495845,16.259947 27.261538,14.523077 C 27.562506,13.702564 27.670083,12.882051 27.815385,12.061538 C 27.902917,10.223994 25.262136,8.3596045 23.815385,8.4307692 C 21.509883,8.7824071 19.599293,9.3939288 17.784615,10.4 C 15.885451,11.649738 14.420477,13.029733 14.153846,14.769231 C 14.107458,15.888738 16.491638,17.475516 19.076923,19.076923 C 20.01783,20.115408 20.969207,22.136415 18.707692,23.938462 C 16.81098,25.340574 14.484689,25.154581 12.676923,24.738462 L 9.4153846,23.569231 z "
     id="path2158"
     sodipodi:nodetypes="ccccccccccccccccccccccccc" />
</svg>
