<?xml version="1.0" encoding="UTF-8" standalone="no"?>
<!-- Created with Inkscape (http://www.inkscape.org/) -->
<svg
   xmlns:dc="http://purl.org/dc/elements/1.1/"
   xmlns:cc="http://web.resource.org/cc/"
   xmlns:rdf="http://www.w3.org/1999/02/22-rdf-syntax-ns#"
   xmlns:svg="http://www.w3.org/2000/svg"
   xmlns="http://www.w3.org/2000/svg"
   xmlns:sodipodi="http://sodipodi.sourceforge.net/DTD/sodipodi-0.dtd"
   xmlns:inkscape="http://www.inkscape.org/namespaces/inkscape"
   id="svg2"
   sodipodi:version="0.32"
   inkscape:version="0.45.1"
   width="35"
   height="32"
   version="1.0"
   sodipodi:docbase="C:\Users\Trenton Cronholm\Desktop"
   sodipodi:docname="Baybayin_Nga.svg"
   inkscape:output_extension="org.inkscape.output.svg.inkscape">
  <metadata
     id="metadata7">
    <rdf:RDF>
      <cc:Work
         rdf:about="">
        <dc:format>image/svg+xml</dc:format>
        <dc:type
           rdf:resource="http://purl.org/dc/dcmitype/StillImage" />
      </cc:Work>
    </rdf:RDF>
  </metadata>
  <defs
     id="defs5" />
  <sodipodi:namedview
     inkscape:window-height="718"
     inkscape:window-width="1024"
     inkscape:pageshadow="2"
     inkscape:pageopacity="0.0"
     guidetolerance="10.0"
     gridtolerance="10.0"
     objecttolerance="10.0"
     borderopacity="1.0"
     bordercolor="#666666"
     pagecolor="#ffffff"
     id="base"
     inkscape:zoom="16.25"
     inkscape:cx="17.5"
     inkscape:cy="16"
     inkscape:window-x="-8"
     inkscape:window-y="-8"
     inkscape:current-layer="svg2" />
  <path
     style="fill:#000000;fill-rule:evenodd;stroke:none;stroke-width:1px;stroke-linecap:butt;stroke-linejoin:miter;stroke-opacity:1;fill-opacity:1"
     d="M 27.692308,19.815385 C 27.692308,19.815385 29.492307,20.969231 30.461538,20.430769 C 31.430769,19.892307 31.492308,19.230769 31.507693,17.661538 C 31.523095,16.090498 31.107693,14.323076 29.292308,14.338461 C 25.505059,14.415422 25.798829,21.723004 22.953846,21.723077 C 20.109527,21.72315 20.538462,16 17.476923,16.307692 C 14.415384,16.615384 14.647758,22.203376 10.830769,23.138462 C 6.9999998,24.076924 3.6175479,22.956682 4.1846154,23.815384 C 4.7230769,24.630769 5.6,25.661538 5.6,25.661538 C 2.8842846,25.56253 1.3352811,24.142755 1.3538461,23.2 C 1.3736226,22.195732 2.1457987,21.148274 4.6769231,21.046154 C 7.1466102,20.946512 12.353847,22.584615 12.492308,17.230769 C 12.446154,10.215384 5.7279867,13.432734 3.0769231,12.369231 C -0.17608899,11.185621 1.8761077,5.0138167 5.9076923,7.2 C 4.6410579,7.9575904 3.1210294,8.9610739 3.5692308,9.6 C 4.5924662,10.946053 9.9667579,9.6998866 11.753846,10.646154 C 13.514838,11.578604 14.417553,14.597493 15.323077,14.76923 C 16.215384,14.938461 16.446317,14.187817 17.784615,14.153846 C 21.953846,14.123077 21,19.030769 22.707692,19.015384 C 24.417047,18.999984 24.076071,12.304137 29.107693,12.369231 C 32.785261,12.369231 33.646154,14.938461 33.6,17.415384 C 33.615391,21.491925 32.050028,22.215221 30.584615,22.276923 C 29.123076,22.338462 27.692308,19.815385 27.692308,19.815385 z "
     id="path2161"
     sodipodi:nodetypes="czzczzzzczzcccczzczcczc" />
</svg>
