<?xml version="1.0" encoding="UTF-8" standalone="no"?>
<!-- Created with Inkscape (http://www.inkscape.org/) -->
<svg
   xmlns:dc="http://purl.org/dc/elements/1.1/"
   xmlns:cc="http://web.resource.org/cc/"
   xmlns:rdf="http://www.w3.org/1999/02/22-rdf-syntax-ns#"
   xmlns:svg="http://www.w3.org/2000/svg"
   xmlns="http://www.w3.org/2000/svg"
   xmlns:sodipodi="http://sodipodi.sourceforge.net/DTD/sodipodi-0.dtd"
   xmlns:inkscape="http://www.inkscape.org/namespaces/inkscape"
   id="svg2"
   sodipodi:version="0.32"
   inkscape:version="0.45.1"
   width="35"
   height="32"
   version="1.0"
   sodipodi:docbase="C:\Users\Trenton\Desktop"
   sodipodi:docname="Baybayin_Wa.svg"
   inkscape:output_extension="org.inkscape.output.svg.inkscape">
  <metadata
     id="metadata7">
    <rdf:RDF>
      <cc:Work
         rdf:about="">
        <dc:format>image/svg+xml</dc:format>
        <dc:type
           rdf:resource="http://purl.org/dc/dcmitype/StillImage" />
      </cc:Work>
    </rdf:RDF>
  </metadata>
  <defs
     id="defs5" />
  <sodipodi:namedview
     inkscape:window-height="575"
     inkscape:window-width="765"
     inkscape:pageshadow="2"
     inkscape:pageopacity="0.0"
     guidetolerance="10.0"
     gridtolerance="10.0"
     objecttolerance="10.0"
     borderopacity="1.0"
     bordercolor="#666666"
     pagecolor="#ffffff"
     id="base"
     inkscape:zoom="15.694457"
     inkscape:cx="16.990936"
     inkscape:cy="16.763926"
     inkscape:window-x="46"
     inkscape:window-y="46"
     inkscape:current-layer="svg2" />
  <path
     style="fill:#000000;fill-rule:evenodd;stroke:none;stroke-width:1px;stroke-linecap:butt;stroke-linejoin:miter;stroke-opacity:1;fill-opacity:1"
     d="M 9.9398157,12.375237 C 9.1911113,13.150844 12.064078,14.286869 12.042469,15.115058 C 12.01919,16.007246 9.8262197,17.695702 9.8123817,20.530982 C 9.794284,24.155714 12.653606,25.461043 16.693793,25.564607 C 18.812119,25.619777 20.158396,25.02949 21.345116,24.226556 C 22.316131,23.569567 24.010764,20.98449 24.339804,19.384081 C 24.933425,16.496792 25.246307,13.394832 23.893787,9.6354157 C 22.92574,6.9446662 21.300317,5.5996641 18.732729,5.0478087 C 17.040541,4.6841045 15.75397,4.6495789 14.081405,5.1115254 C 12.40884,5.5734719 11.564593,6.2584271 12.169902,6.8955948 C 12.662997,7.4146423 14.311631,6.7592391 16.311492,6.7681613 C 18.977082,6.7800536 20.480757,7.5858005 21.854851,10.272584 C 22.617806,11.7644 22.938036,12.614175 22.938036,14.47789 C 22.938036,16.214171 22.947956,17.923112 22.555735,19.19293 C 22.089125,20.703582 21.504408,21.550451 20.261931,22.761069 C 19.019454,23.971687 18.414145,23.748679 16.566359,23.844254 C 14.718573,23.939829 13.67698,23.414664 12.870786,22.824786 C 11.495573,21.818567 11.57751,20.561036 11.915034,18.874346 C 12.230531,17.297728 13.596342,16.831183 14.145122,15.815941 C 14.463706,15.226561 14.415918,14.446032 14.081405,13.968156 C 13.33856,12.90695 10.644606,11.64512 9.9398157,12.375237 z "
     id="path2161"
     sodipodi:nodetypes="cssssssssssssssssssss" />
</svg>
