<?xml version="1.0" encoding="UTF-8" standalone="no"?>
<!-- Created with Inkscape (http://www.inkscape.org/) -->
<svg
   xmlns:dc="http://purl.org/dc/elements/1.1/"
   xmlns:cc="http://web.resource.org/cc/"
   xmlns:rdf="http://www.w3.org/1999/02/22-rdf-syntax-ns#"
   xmlns:svg="http://www.w3.org/2000/svg"
   xmlns="http://www.w3.org/2000/svg"
   xmlns:sodipodi="http://sodipodi.sourceforge.net/DTD/sodipodi-0.dtd"
   xmlns:inkscape="http://www.inkscape.org/namespaces/inkscape"
   id="svg2"
   sodipodi:version="0.32"
   inkscape:version="0.45.1"
   width="35"
   height="32"
   version="1.0"
   sodipodi:docbase="C:\Users\Trenton Cronholm\Desktop"
   sodipodi:docname="Baybayin_Ya.svg"
   inkscape:output_extension="org.inkscape.output.svg.inkscape">
  <metadata
     id="metadata7">
    <rdf:RDF>
      <cc:Work
         rdf:about="">
        <dc:format>image/svg+xml</dc:format>
        <dc:type
           rdf:resource="http://purl.org/dc/dcmitype/StillImage" />
      </cc:Work>
    </rdf:RDF>
  </metadata>
  <defs
     id="defs5" />
  <sodipodi:namedview
     inkscape:window-height="718"
     inkscape:window-width="1024"
     inkscape:pageshadow="2"
     inkscape:pageopacity="0.0"
     guidetolerance="10.0"
     gridtolerance="10.0"
     objecttolerance="10.0"
     borderopacity="1.0"
     bordercolor="#666666"
     pagecolor="#ffffff"
     id="base"
     inkscape:zoom="16.25"
     inkscape:cx="17.5"
     inkscape:cy="15.900923"
     inkscape:window-x="-8"
     inkscape:window-y="-8"
     inkscape:current-layer="svg2" />
  <path
     style="fill:#000000;fill-rule:evenodd;stroke:none;stroke-width:1px;stroke-linecap:butt;stroke-linejoin:miter;stroke-opacity:1;fill-opacity:1"
     d="M 27.323077,19.384615 C 27.323077,19.384615 31.323077,19.123077 31.323077,15.753846 C 31.38683,13.984693 30.4,9.8769235 25.046154,12 C 20.77865,13.700775 14.107692,22.6 9.1076923,24.615384 C 4.0860753,26.639482 0.95384616,22.738462 1.0461538,18.092308 C 1.1384615,13.507693 6.876923,11.984615 6.8923077,10.584615 C 6.9076998,9.1839388 1.9692308,6.1538462 1.9692308,6.1538462 C 1.9692308,6.1538462 4.0737297,5.1634511 5.4769231,5.6 C 6.8615384,6.0307692 9.9538462,7.6923074 9.9692308,10.461538 C 9.9846173,13.231111 3.8268495,16.000247 4,18.707692 C 4.1692307,21.353846 5.3846153,22.646154 6.4615385,22.153846 C 10.984616,20 20.488687,10.905675 22.092308,10.092308 C 23.745062,9.2540206 27.461538,8.0000002 30.461538,9.2923077 C 33.461538,10.584615 34.03077,12.138461 34.092308,15.261538 C 34.153846,18.323076 31.599944,20.628887 30.03077,20.676923 C 28.523077,20.723076 27.323077,19.384615 27.323077,19.384615 z "
     id="path2161"
     sodipodi:nodetypes="ccczzzczzzczzzzc" />
</svg>
